<svg width="200" height="120" viewBox="0 0 200 120" fill="none" xmlns="http://www.w3.org/2000/svg">
  <!-- Shield Background -->
  <path d="M100 10 L160 30 L160 70 C160 85 140 105 100 110 C60 105 40 85 40 70 L40 30 L100 10 Z" fill="#22C55E" stroke="#16A34A" stroke-width="2"/>
  
  <!-- Castle/Building Elements on Shield -->
  <rect x="85" y="25" width="6" height="15" fill="white"/>
  <rect x="95" y="20" width="6" height="20" fill="white"/>
  <rect x="105" y="25" width="6" height="15" fill="white"/>
  <rect x="115" y="20" width="6" height="20" fill="white"/>
  
  <!-- Shield Inner Design -->
  <path d="M70 45 L130 45 L130 75 C130 82 120 90 100 92 C80 90 70 82 70 75 L70 45 Z" fill="white" opacity="0.9"/>
  
  <!-- Company Name -->
  <text x="100" y="65" font-family="Arial, sans-serif" font-size="14" font-weight="bold" fill="#16A34A" text-anchor="middle">PARAFORT</text>
  
  <!-- Tagline -->
  <text x="100" y="78" font-family="Arial, sans-serif" font-size="6" fill="#16A34A" text-anchor="middle">BUSINESS SERVICES &amp; COMPLIANCE</text>
</svg>